<mxfile host="app.diagrams.net" modified="2024-04-21T20:20:28.231Z" agent="Mozilla/5.0 (Windows NT 10.0; Win64; x64; rv:125.0) Gecko/20100101 Firefox/125.0" etag="XOmlv9gBMW61A7pEae0F" version="24.2.7" type="device">
  <diagram id="C5RBs43oDa-KdzZeNtuy" name="Page-1">
    <mxGraphModel dx="2603" dy="2408" grid="1" gridSize="10" guides="1" tooltips="1" connect="1" arrows="1" fold="1" page="1" pageScale="1" pageWidth="1169" pageHeight="1654" background="#FFFFFF" math="0" shadow="0">
      <root>
        <mxCell id="WIyWlLk6GJQsqaUBKTNV-0" />
        <mxCell id="WIyWlLk6GJQsqaUBKTNV-1" parent="WIyWlLk6GJQsqaUBKTNV-0" />
        <mxCell id="D7E68T9pFaGjz6Eeja75-0" value="Patient" style="swimlane;fontStyle=2;align=center;verticalAlign=top;childLayout=stackLayout;horizontal=1;startSize=26;horizontalStack=0;resizeParent=1;resizeLast=0;collapsible=1;marginBottom=0;rounded=0;shadow=0;strokeWidth=1;strokeColor=#6c8ebf;fillColor=#dae8fc;" parent="WIyWlLk6GJQsqaUBKTNV-1" vertex="1">
          <mxGeometry x="690" y="-40" width="180" height="210" as="geometry">
            <mxRectangle x="230" y="140" width="160" height="26" as="alternateBounds" />
          </mxGeometry>
        </mxCell>
        <mxCell id="D7E68T9pFaGjz6Eeja75-1" value="- patientName: string&#xa;- patientId: string&#xa;- patientAge: string&#xa;- patientAddress: string&#xa;- patientEmail: string&#xa;- patientPhoneNumber: string&#xa;- patientPassword: string" style="text;align=left;verticalAlign=top;spacingLeft=4;spacingRight=4;overflow=hidden;rotatable=0;points=[[0,0.5],[1,0.5]];portConstraint=eastwest;strokeColor=#6c8ebf;fillColor=#dae8fc;" parent="D7E68T9pFaGjz6Eeja75-0" vertex="1">
          <mxGeometry y="26" width="180" height="114" as="geometry" />
        </mxCell>
        <mxCell id="D7E68T9pFaGjz6Eeja75-2" value="" style="endArrow=none;html=1;rounded=0;exitX=0.006;exitY=0.925;exitDx=0;exitDy=0;exitPerimeter=0;entryX=1.006;entryY=0.933;entryDx=0;entryDy=0;entryPerimeter=0;strokeColor=#6c8ebf;fillColor=#dae8fc;" parent="D7E68T9pFaGjz6Eeja75-0" edge="1">
          <mxGeometry width="50" height="50" relative="1" as="geometry">
            <mxPoint x="-7.283063041541027e-14" y="140.00000000000006" as="sourcePoint" />
            <mxPoint x="179.99999999999991" y="141.07200000000006" as="targetPoint" />
          </mxGeometry>
        </mxCell>
        <mxCell id="D7E68T9pFaGjz6Eeja75-3" value="+ setPatientEmail(): void&#xa;+ setPatientPassword(): void&#xa;+ getPatientEmail(): void&#xa;+ getPatientPassword(): void&#xa;&#xa;&#xa;&#xa;&#xa;" style="text;align=left;verticalAlign=top;spacingLeft=4;spacingRight=4;overflow=hidden;rotatable=0;points=[[0,0.5],[1,0.5]];portConstraint=eastwest;strokeColor=#6c8ebf;fillColor=#dae8fc;" parent="D7E68T9pFaGjz6Eeja75-0" vertex="1">
          <mxGeometry y="140" width="180" height="60" as="geometry" />
        </mxCell>
        <mxCell id="D7E68T9pFaGjz6Eeja75-4" value="Doctor" style="swimlane;fontStyle=2;align=center;verticalAlign=top;childLayout=stackLayout;horizontal=1;startSize=26;horizontalStack=0;resizeParent=1;resizeLast=0;collapsible=1;marginBottom=0;rounded=0;shadow=0;strokeWidth=1;strokeColor=#6c8ebf;fillColor=#dae8fc;" parent="WIyWlLk6GJQsqaUBKTNV-1" vertex="1">
          <mxGeometry x="370" y="-170" width="180" height="210" as="geometry">
            <mxRectangle x="230" y="140" width="160" height="26" as="alternateBounds" />
          </mxGeometry>
        </mxCell>
        <mxCell id="D7E68T9pFaGjz6Eeja75-6" value="" style="endArrow=none;html=1;rounded=0;exitX=0.006;exitY=0.925;exitDx=0;exitDy=0;exitPerimeter=0;entryX=1.006;entryY=0.933;entryDx=0;entryDy=0;entryPerimeter=0;strokeColor=#6c8ebf;fillColor=#dae8fc;" parent="D7E68T9pFaGjz6Eeja75-4" edge="1">
          <mxGeometry width="50" height="50" relative="1" as="geometry">
            <mxPoint x="-7.283063041541027e-14" y="140.00000000000006" as="sourcePoint" />
            <mxPoint x="179.99999999999991" y="141.07200000000006" as="targetPoint" />
          </mxGeometry>
        </mxCell>
        <mxCell id="D7E68T9pFaGjz6Eeja75-5" value="- doctorName: string&#xa;- doctorId: string&#xa;- doctorAge: string&#xa;- doctorAddress: string&#xa;- doctorEmail: string&#xa;- doctorPhoneNumber: string&#xa;- doctorPassword: string" style="text;align=left;verticalAlign=top;spacingLeft=4;spacingRight=4;overflow=hidden;rotatable=0;points=[[0,0.5],[1,0.5]];portConstraint=eastwest;strokeColor=#6c8ebf;fillColor=#dae8fc;" parent="D7E68T9pFaGjz6Eeja75-4" vertex="1">
          <mxGeometry y="26" width="180" height="114" as="geometry" />
        </mxCell>
        <mxCell id="D7E68T9pFaGjz6Eeja75-7" value="+ setDoctorEmail(): void&#xa;+ setDoctorPassword(): void&#xa;+ getDoctorEmail(): void&#xa;+ getDoctorPassword(): void&#xa;&#xa;" style="text;align=left;verticalAlign=top;spacingLeft=4;spacingRight=4;overflow=hidden;rotatable=0;points=[[0,0.5],[1,0.5]];portConstraint=eastwest;strokeColor=#6c8ebf;fillColor=#dae8fc;" parent="D7E68T9pFaGjz6Eeja75-4" vertex="1">
          <mxGeometry y="140" width="180" height="70" as="geometry" />
        </mxCell>
        <mxCell id="D7E68T9pFaGjz6Eeja75-8" value="Admin" style="swimlane;fontStyle=2;align=center;verticalAlign=top;childLayout=stackLayout;horizontal=1;startSize=26;horizontalStack=0;resizeParent=1;resizeLast=0;collapsible=1;marginBottom=0;rounded=0;shadow=0;strokeWidth=1;strokeColor=#6c8ebf;fillColor=#dae8fc;" parent="WIyWlLk6GJQsqaUBKTNV-1" vertex="1">
          <mxGeometry x="90" y="170" width="180" height="210" as="geometry">
            <mxRectangle x="230" y="140" width="160" height="26" as="alternateBounds" />
          </mxGeometry>
        </mxCell>
        <mxCell id="D7E68T9pFaGjz6Eeja75-9" value="- adminName: string&#xa;- adminId: string&#xa;- adminAge: string&#xa;- adminAddress: string&#xa;- adminEmail: string&#xa;- adminPhoneNumber: string&#xa;- adminPassword: string" style="text;align=left;verticalAlign=top;spacingLeft=4;spacingRight=4;overflow=hidden;rotatable=0;points=[[0,0.5],[1,0.5]];portConstraint=eastwest;strokeColor=#6c8ebf;fillColor=#dae8fc;" parent="D7E68T9pFaGjz6Eeja75-8" vertex="1">
          <mxGeometry y="26" width="180" height="114" as="geometry" />
        </mxCell>
        <mxCell id="D7E68T9pFaGjz6Eeja75-10" value="" style="endArrow=none;html=1;rounded=0;exitX=0.006;exitY=0.925;exitDx=0;exitDy=0;exitPerimeter=0;entryX=1.006;entryY=0.933;entryDx=0;entryDy=0;entryPerimeter=0;strokeColor=#6c8ebf;fillColor=#dae8fc;" parent="D7E68T9pFaGjz6Eeja75-8" edge="1">
          <mxGeometry width="50" height="50" relative="1" as="geometry">
            <mxPoint x="-7.283063041541027e-14" y="140.00000000000006" as="sourcePoint" />
            <mxPoint x="179.99999999999991" y="141.07200000000006" as="targetPoint" />
          </mxGeometry>
        </mxCell>
        <mxCell id="D7E68T9pFaGjz6Eeja75-11" value="+ setAdminEmail(): void&#xa;+ getAdminEmail(): void&#xa;+ setAdminPassword(): void&#xa;+ getAdminPassword(): void&#xa;" style="text;align=left;verticalAlign=top;spacingLeft=4;spacingRight=4;overflow=hidden;rotatable=0;points=[[0,0.5],[1,0.5]];portConstraint=eastwest;strokeColor=#6c8ebf;fillColor=#dae8fc;" parent="D7E68T9pFaGjz6Eeja75-8" vertex="1">
          <mxGeometry y="140" width="180" height="70" as="geometry" />
        </mxCell>
        <mxCell id="D7E68T9pFaGjz6Eeja75-12" value="Authentication" style="swimlane;fontStyle=2;align=center;verticalAlign=top;childLayout=stackLayout;horizontal=1;startSize=26;horizontalStack=0;resizeParent=1;resizeLast=0;collapsible=1;marginBottom=0;rounded=0;shadow=0;strokeWidth=1;fontSize=12;strokeColor=#6c8ebf;fillColor=#dae8fc;" parent="WIyWlLk6GJQsqaUBKTNV-1" vertex="1">
          <mxGeometry x="390" y="110" width="230" height="110" as="geometry">
            <mxRectangle x="230" y="140" width="160" height="26" as="alternateBounds" />
          </mxGeometry>
        </mxCell>
        <mxCell id="D7E68T9pFaGjz6Eeja75-13" value="- username: string&#xa;- password: string" style="text;align=left;verticalAlign=top;spacingLeft=4;spacingRight=4;overflow=hidden;rotatable=0;points=[[0,0.5],[1,0.5]];portConstraint=eastwest;strokeColor=#6c8ebf;fillColor=#dae8fc;" parent="D7E68T9pFaGjz6Eeja75-12" vertex="1">
          <mxGeometry y="26" width="230" height="44" as="geometry" />
        </mxCell>
        <mxCell id="D7E68T9pFaGjz6Eeja75-14" value="" style="endArrow=none;html=1;rounded=0;exitX=0.006;exitY=0.925;exitDx=0;exitDy=0;exitPerimeter=0;entryX=1.009;entryY=1.023;entryDx=0;entryDy=0;entryPerimeter=0;strokeColor=#6c8ebf;fillColor=#dae8fc;" parent="D7E68T9pFaGjz6Eeja75-12" target="D7E68T9pFaGjz6Eeja75-13" edge="1">
          <mxGeometry width="50" height="50" relative="1" as="geometry">
            <mxPoint x="-7.283063041541027e-14" y="70.00000000000006" as="sourcePoint" />
            <mxPoint x="179.99999999999991" y="71.07200000000006" as="targetPoint" />
          </mxGeometry>
        </mxCell>
        <mxCell id="D7E68T9pFaGjz6Eeja75-15" value="+ login(userName,Passward): boolean&#xa;+ logout(): void&#xa;&#xa;&#xa;&#xa;&#xa;" style="text;align=left;verticalAlign=top;spacingLeft=4;spacingRight=4;overflow=hidden;rotatable=0;points=[[0,0.5],[1,0.5]];portConstraint=eastwest;strokeColor=#6c8ebf;fillColor=#dae8fc;" parent="D7E68T9pFaGjz6Eeja75-12" vertex="1">
          <mxGeometry y="70" width="230" height="40" as="geometry" />
        </mxCell>
        <mxCell id="D7E68T9pFaGjz6Eeja75-16" value="Appointment" style="swimlane;fontStyle=2;align=center;verticalAlign=top;childLayout=stackLayout;horizontal=1;startSize=26;horizontalStack=0;resizeParent=1;resizeLast=0;collapsible=1;marginBottom=0;rounded=0;shadow=0;strokeWidth=1;strokeColor=#6c8ebf;fillColor=#dae8fc;" parent="WIyWlLk6GJQsqaUBKTNV-1" vertex="1">
          <mxGeometry x="790" y="280" width="180" height="250" as="geometry">
            <mxRectangle x="230" y="140" width="160" height="26" as="alternateBounds" />
          </mxGeometry>
        </mxCell>
        <mxCell id="D7E68T9pFaGjz6Eeja75-17" value="- appointmentId: int&#xa;- appoinmentType: string&#xa;- description: string&#xa;- date: date&#xa;- time: time &#xa;" style="text;align=left;verticalAlign=top;spacingLeft=4;spacingRight=4;overflow=hidden;rotatable=0;points=[[0,0.5],[1,0.5]];portConstraint=eastwest;strokeColor=#6c8ebf;fillColor=#dae8fc;" parent="D7E68T9pFaGjz6Eeja75-16" vertex="1">
          <mxGeometry y="26" width="180" height="84" as="geometry" />
        </mxCell>
        <mxCell id="D7E68T9pFaGjz6Eeja75-18" value="" style="endArrow=none;html=1;rounded=0;exitX=0.006;exitY=0.925;exitDx=0;exitDy=0;exitPerimeter=0;entryX=1.006;entryY=0.933;entryDx=0;entryDy=0;entryPerimeter=0;strokeColor=#6c8ebf;fillColor=#dae8fc;" parent="D7E68T9pFaGjz6Eeja75-16" edge="1">
          <mxGeometry width="50" height="50" relative="1" as="geometry">
            <mxPoint x="-7.283063041541027e-14" y="110.00000000000006" as="sourcePoint" />
            <mxPoint x="179.99999999999991" y="111.07200000000006" as="targetPoint" />
          </mxGeometry>
        </mxCell>
        <mxCell id="D7E68T9pFaGjz6Eeja75-19" value="+ getAppointmentId(): int&#xa;+ getAppointmentType(): string&#xa;+setAppointmentType(): void&#xa;+ getDescription(): string&#xa;+ setDscription(): void&#xa;+ getDate(): date&#xa;+ setDate(date): void&#xa;+ getTime(): time&#xa;+ setTime(time): void&#xa;  &#xa; &#xa;&#xa;&#xa;&#xa;&#xa;&#xa;&#xa;&#xa;&#xa;&#xa;" style="text;align=left;verticalAlign=top;spacingLeft=4;spacingRight=4;overflow=hidden;rotatable=0;points=[[0,0.5],[1,0.5]];portConstraint=eastwest;strokeColor=#6c8ebf;fillColor=#dae8fc;" parent="D7E68T9pFaGjz6Eeja75-16" vertex="1">
          <mxGeometry y="110" width="180" height="140" as="geometry" />
        </mxCell>
        <mxCell id="D7E68T9pFaGjz6Eeja75-21" value="BookingManager" style="swimlane;fontStyle=2;align=center;verticalAlign=top;childLayout=stackLayout;horizontal=1;startSize=26;horizontalStack=0;resizeParent=1;resizeLast=0;collapsible=1;marginBottom=0;rounded=0;shadow=0;strokeWidth=1;strokeColor=#6c8ebf;fillColor=#dae8fc;" parent="WIyWlLk6GJQsqaUBKTNV-1" vertex="1">
          <mxGeometry x="420" y="320" width="270" height="190" as="geometry">
            <mxRectangle x="230" y="140" width="160" height="26" as="alternateBounds" />
          </mxGeometry>
        </mxCell>
        <mxCell id="D7E68T9pFaGjz6Eeja75-22" value="- appointmentId: int&#xa;- date: date&#xa;- time: time &#xa;" style="text;align=left;verticalAlign=top;spacingLeft=4;spacingRight=4;overflow=hidden;rotatable=0;points=[[0,0.5],[1,0.5]];portConstraint=eastwest;strokeColor=#6c8ebf;fillColor=#dae8fc;" parent="D7E68T9pFaGjz6Eeja75-21" vertex="1">
          <mxGeometry y="26" width="270" height="54" as="geometry" />
        </mxCell>
        <mxCell id="D7E68T9pFaGjz6Eeja75-23" value="" style="endArrow=none;html=1;rounded=0;exitX=0.006;exitY=0.925;exitDx=0;exitDy=0;exitPerimeter=0;entryX=1;entryY=1.037;entryDx=0;entryDy=0;entryPerimeter=0;strokeColor=#6c8ebf;fillColor=#dae8fc;" parent="D7E68T9pFaGjz6Eeja75-21" target="D7E68T9pFaGjz6Eeja75-22" edge="1">
          <mxGeometry width="50" height="50" relative="1" as="geometry">
            <mxPoint x="-7.283063041541027e-14" y="80.00000000000006" as="sourcePoint" />
            <mxPoint x="208.94999999999982" y="80.03199999999993" as="targetPoint" />
            <Array as="points">
              <mxPoint x="100" y="80" />
            </Array>
          </mxGeometry>
        </mxCell>
        <mxCell id="D7E68T9pFaGjz6Eeja75-24" value="+ getAppointmentId(): int&#xa;+ bookAppointment(date,time): boolean&#xa;+getOngoingAppointments(Doctor): list &#xa;+ getSchedule(): list&#xa;+ cancelAppointment(appointmentId): Boolean&#xa;  + editAppointment(appointmentId): boolean&#xa;+ searchAppointment(appointmentId): boolean&#xa;  &#xa; &#xa;&#xa;&#xa;&#xa;&#xa;&#xa;&#xa;&#xa;&#xa;&#xa;" style="text;align=left;verticalAlign=top;spacingLeft=4;spacingRight=4;overflow=hidden;rotatable=0;points=[[0,0.5],[1,0.5]];portConstraint=eastwest;strokeColor=#6c8ebf;fillColor=#dae8fc;" parent="D7E68T9pFaGjz6Eeja75-21" vertex="1">
          <mxGeometry y="80" width="270" height="110" as="geometry" />
        </mxCell>
        <mxCell id="D7E68T9pFaGjz6Eeja75-25" value="OnlineReport" style="swimlane;fontStyle=2;align=center;verticalAlign=top;childLayout=stackLayout;horizontal=1;startSize=26;horizontalStack=0;resizeParent=1;resizeLast=0;collapsible=1;marginBottom=0;rounded=0;shadow=0;strokeWidth=1;strokeColor=#6c8ebf;fillColor=#dae8fc;" parent="WIyWlLk6GJQsqaUBKTNV-1" vertex="1">
          <mxGeometry x="960" y="-180" width="210" height="170" as="geometry">
            <mxRectangle x="230" y="140" width="160" height="26" as="alternateBounds" />
          </mxGeometry>
        </mxCell>
        <mxCell id="D7E68T9pFaGjz6Eeja75-27" value="" style="endArrow=none;html=1;rounded=0;exitX=0.006;exitY=0.925;exitDx=0;exitDy=0;exitPerimeter=0;entryX=0.995;entryY=0.808;entryDx=0;entryDy=0;entryPerimeter=0;strokeColor=#6c8ebf;fillColor=#dae8fc;" parent="D7E68T9pFaGjz6Eeja75-25" edge="1">
          <mxGeometry width="50" height="50" relative="1" as="geometry">
            <mxPoint x="-7.283063041541027e-14" y="80.00000000000006" as="sourcePoint" />
            <mxPoint x="208.94999999999982" y="80.03199999999993" as="targetPoint" />
            <Array as="points">
              <mxPoint x="100" y="80" />
            </Array>
          </mxGeometry>
        </mxCell>
        <mxCell id="D7E68T9pFaGjz6Eeja75-26" value="- reportId: int&#xa;- reportText: string&#xa;- reportdate: Date&#xa;" style="text;align=left;verticalAlign=top;spacingLeft=4;spacingRight=4;overflow=hidden;rotatable=0;points=[[0,0.5],[1,0.5]];portConstraint=eastwest;strokeColor=#6c8ebf;fillColor=#dae8fc;" parent="D7E68T9pFaGjz6Eeja75-25" vertex="1">
          <mxGeometry y="26" width="210" height="54" as="geometry" />
        </mxCell>
        <mxCell id="D7E68T9pFaGjz6Eeja75-28" value="+ getReportId(): int&#xa;+ getReportText(): String&#xa;+ setReportText(): void&#xa;+ getReportDate(): Date&#xa;+ setReportDate(): void&#xa;  &#xa; &#xa;&#xa;&#xa;&#xa;&#xa;  &#xa; &#xa;&#xa;&#xa;&#xa;&#xa;&#xa;&#xa;&#xa;&#xa;&#xa;" style="text;align=left;verticalAlign=top;spacingLeft=4;spacingRight=4;overflow=hidden;rotatable=0;points=[[0,0.5],[1,0.5]];portConstraint=eastwest;strokeColor=#6c8ebf;fillColor=#dae8fc;" parent="D7E68T9pFaGjz6Eeja75-25" vertex="1">
          <mxGeometry y="80" width="210" height="90" as="geometry" />
        </mxCell>
        <mxCell id="D7E68T9pFaGjz6Eeja75-30" value="Review" style="swimlane;fontStyle=2;align=center;verticalAlign=top;childLayout=stackLayout;horizontal=1;startSize=26;horizontalStack=0;resizeParent=1;resizeLast=0;collapsible=1;marginBottom=0;rounded=0;shadow=0;strokeWidth=1;strokeColor=#6c8ebf;fillColor=#dae8fc;" parent="WIyWlLk6GJQsqaUBKTNV-1" vertex="1">
          <mxGeometry x="1130" y="240" width="210" height="170" as="geometry">
            <mxRectangle x="230" y="140" width="160" height="26" as="alternateBounds" />
          </mxGeometry>
        </mxCell>
        <mxCell id="D7E68T9pFaGjz6Eeja75-31" value="" style="endArrow=none;html=1;rounded=0;exitX=0.006;exitY=0.925;exitDx=0;exitDy=0;exitPerimeter=0;entryX=0.995;entryY=0.808;entryDx=0;entryDy=0;entryPerimeter=0;strokeColor=#6c8ebf;fillColor=#dae8fc;" parent="D7E68T9pFaGjz6Eeja75-30" edge="1">
          <mxGeometry width="50" height="50" relative="1" as="geometry">
            <mxPoint x="-7.283063041541027e-14" y="80.00000000000006" as="sourcePoint" />
            <mxPoint x="208.94999999999982" y="80.03199999999993" as="targetPoint" />
            <Array as="points">
              <mxPoint x="100" y="80" />
            </Array>
          </mxGeometry>
        </mxCell>
        <mxCell id="D7E68T9pFaGjz6Eeja75-32" value="- reviewId: int&#xa;- rating: int&#xa;- comment: String&#xa;" style="text;align=left;verticalAlign=top;spacingLeft=4;spacingRight=4;overflow=hidden;rotatable=0;points=[[0,0.5],[1,0.5]];portConstraint=eastwest;strokeColor=#6c8ebf;fillColor=#dae8fc;" parent="D7E68T9pFaGjz6Eeja75-30" vertex="1">
          <mxGeometry y="26" width="210" height="54" as="geometry" />
        </mxCell>
        <mxCell id="D7E68T9pFaGjz6Eeja75-33" value="+ getReviewId(): int&#xa;+ getRating(): int&#xa;+ setRating(): void&#xa;+ getComment(): String&#xa;+ setComment(): void&#xa;  &#xa; &#xa;&#xa;&#xa;&#xa;&#xa;  &#xa; &#xa;&#xa;&#xa;&#xa;&#xa;&#xa;&#xa;&#xa;&#xa;&#xa;" style="text;align=left;verticalAlign=top;spacingLeft=4;spacingRight=4;overflow=hidden;rotatable=0;points=[[0,0.5],[1,0.5]];portConstraint=eastwest;strokeColor=#6c8ebf;fillColor=#dae8fc;" parent="D7E68T9pFaGjz6Eeja75-30" vertex="1">
          <mxGeometry y="80" width="210" height="90" as="geometry" />
        </mxCell>
        <mxCell id="D7E68T9pFaGjz6Eeja75-34" value=" Payment" style="swimlane;fontStyle=2;align=center;verticalAlign=top;childLayout=stackLayout;horizontal=1;startSize=26;horizontalStack=0;resizeParent=1;resizeLast=0;collapsible=1;marginBottom=0;rounded=0;shadow=0;strokeWidth=1;strokeColor=#6c8ebf;fillColor=#dae8fc;" parent="WIyWlLk6GJQsqaUBKTNV-1" vertex="1">
          <mxGeometry x="1060" y="30" width="210" height="170" as="geometry">
            <mxRectangle x="230" y="140" width="160" height="26" as="alternateBounds" />
          </mxGeometry>
        </mxCell>
        <mxCell id="D7E68T9pFaGjz6Eeja75-35" value="" style="endArrow=none;html=1;rounded=0;exitX=0.006;exitY=0.925;exitDx=0;exitDy=0;exitPerimeter=0;entryX=0.995;entryY=0.808;entryDx=0;entryDy=0;entryPerimeter=0;strokeColor=#6c8ebf;fillColor=#dae8fc;" parent="D7E68T9pFaGjz6Eeja75-34" edge="1">
          <mxGeometry width="50" height="50" relative="1" as="geometry">
            <mxPoint x="-7.283063041541027e-14" y="80.00000000000006" as="sourcePoint" />
            <mxPoint x="208.94999999999982" y="80.03199999999993" as="targetPoint" />
            <Array as="points">
              <mxPoint x="100" y="80" />
            </Array>
          </mxGeometry>
        </mxCell>
        <mxCell id="D7E68T9pFaGjz6Eeja75-36" value="- paymentId: int&#xa;-amount: double&#xa;- paymentDate: Date&#xa;" style="text;align=left;verticalAlign=top;spacingLeft=4;spacingRight=4;overflow=hidden;rotatable=0;points=[[0,0.5],[1,0.5]];portConstraint=eastwest;strokeColor=#6c8ebf;fillColor=#dae8fc;" parent="D7E68T9pFaGjz6Eeja75-34" vertex="1">
          <mxGeometry y="26" width="210" height="54" as="geometry" />
        </mxCell>
        <mxCell id="D7E68T9pFaGjz6Eeja75-37" value="+ getPaymentId(): int&#xa;+ getAmount(): double&#xa;+ setAmount(amount: double): void&#xa;+ getPaymentDate(): Date&#xa;+ setPaymentDate(date: Date): void" style="text;align=left;verticalAlign=top;spacingLeft=4;spacingRight=4;overflow=hidden;rotatable=0;points=[[0,0.5],[1,0.5]];portConstraint=eastwest;strokeColor=#6c8ebf;fillColor=#dae8fc;" parent="D7E68T9pFaGjz6Eeja75-34" vertex="1">
          <mxGeometry y="80" width="210" height="90" as="geometry" />
        </mxCell>
        <mxCell id="D7E68T9pFaGjz6Eeja75-48" value="" style="endArrow=none;html=1;rounded=0;exitX=0.87;exitY=0.009;exitDx=0;exitDy=0;exitPerimeter=0;fillColor=#dae8fc;strokeColor=#6c8ebf;" parent="WIyWlLk6GJQsqaUBKTNV-1" source="D7E68T9pFaGjz6Eeja75-12" edge="1">
          <mxGeometry width="50" height="50" relative="1" as="geometry">
            <mxPoint x="590" y="100" as="sourcePoint" />
            <mxPoint x="690" y="5" as="targetPoint" />
            <Array as="points">
              <mxPoint x="590" y="5" />
            </Array>
          </mxGeometry>
        </mxCell>
        <mxCell id="D7E68T9pFaGjz6Eeja75-49" value="" style="endArrow=none;html=1;rounded=0;exitX=0;exitY=0.136;exitDx=0;exitDy=0;exitPerimeter=0;fillColor=#dae8fc;strokeColor=#6c8ebf;" parent="WIyWlLk6GJQsqaUBKTNV-1" source="D7E68T9pFaGjz6Eeja75-12" edge="1">
          <mxGeometry width="50" height="50" relative="1" as="geometry">
            <mxPoint x="580" y="260" as="sourcePoint" />
            <mxPoint x="370" y="-80" as="targetPoint" />
            <Array as="points">
              <mxPoint x="360" y="125" />
              <mxPoint x="320" y="125" />
              <mxPoint x="320" y="-80" />
            </Array>
          </mxGeometry>
        </mxCell>
        <mxCell id="D7E68T9pFaGjz6Eeja75-50" value="" style="endArrow=none;html=1;rounded=0;exitX=-0.009;exitY=-0.025;exitDx=0;exitDy=0;exitPerimeter=0;entryX=1.011;entryY=0.123;entryDx=0;entryDy=0;entryPerimeter=0;fillColor=#dae8fc;strokeColor=#6c8ebf;" parent="WIyWlLk6GJQsqaUBKTNV-1" source="D7E68T9pFaGjz6Eeja75-15" target="D7E68T9pFaGjz6Eeja75-9" edge="1">
          <mxGeometry width="50" height="50" relative="1" as="geometry">
            <mxPoint x="580" y="260" as="sourcePoint" />
            <mxPoint x="360" y="180" as="targetPoint" />
            <Array as="points">
              <mxPoint x="360" y="180" />
              <mxPoint x="360" y="210" />
            </Array>
          </mxGeometry>
        </mxCell>
        <mxCell id="D7E68T9pFaGjz6Eeja75-53" value="" style="endArrow=none;html=1;rounded=0;entryX=1;entryY=0.5;entryDx=0;entryDy=0;fillColor=#dae8fc;strokeColor=#6c8ebf;" parent="WIyWlLk6GJQsqaUBKTNV-1" target="D7E68T9pFaGjz6Eeja75-9" edge="1">
          <mxGeometry width="50" height="50" relative="1" as="geometry">
            <mxPoint x="420" y="440" as="sourcePoint" />
            <mxPoint x="630" y="390" as="targetPoint" />
            <Array as="points">
              <mxPoint x="340" y="440" />
              <mxPoint x="340" y="253" />
            </Array>
          </mxGeometry>
        </mxCell>
        <mxCell id="D7E68T9pFaGjz6Eeja75-54" value="" style="endArrow=none;html=1;rounded=0;exitX=0.693;exitY=-0.011;exitDx=0;exitDy=0;exitPerimeter=0;fillColor=#dae8fc;strokeColor=#6c8ebf;" parent="WIyWlLk6GJQsqaUBKTNV-1" source="D7E68T9pFaGjz6Eeja75-21" edge="1">
          <mxGeometry width="50" height="50" relative="1" as="geometry">
            <mxPoint x="720" y="260" as="sourcePoint" />
            <mxPoint x="720" y="170" as="targetPoint" />
            <Array as="points">
              <mxPoint x="607" y="240" />
              <mxPoint x="720" y="240" />
            </Array>
          </mxGeometry>
        </mxCell>
        <mxCell id="D7E68T9pFaGjz6Eeja75-55" value="" style="endArrow=none;html=1;rounded=0;exitX=0.25;exitY=0;exitDx=0;exitDy=0;entryX=0.5;entryY=1;entryDx=0;entryDy=0;fillColor=#dae8fc;strokeColor=#6c8ebf;" parent="WIyWlLk6GJQsqaUBKTNV-1" source="D7E68T9pFaGjz6Eeja75-16" target="D7E68T9pFaGjz6Eeja75-0" edge="1">
          <mxGeometry width="50" height="50" relative="1" as="geometry">
            <mxPoint x="540" y="350" as="sourcePoint" />
            <mxPoint x="835" y="130" as="targetPoint" />
            <Array as="points">
              <mxPoint x="835" y="200" />
              <mxPoint x="780" y="200" />
            </Array>
          </mxGeometry>
        </mxCell>
        <mxCell id="D7E68T9pFaGjz6Eeja75-56" value="" style="endArrow=none;html=1;rounded=0;entryX=-0.022;entryY=0.155;entryDx=0;entryDy=0;entryPerimeter=0;exitX=1.007;exitY=0.373;exitDx=0;exitDy=0;exitPerimeter=0;fillColor=#dae8fc;strokeColor=#6c8ebf;" parent="WIyWlLk6GJQsqaUBKTNV-1" target="D7E68T9pFaGjz6Eeja75-17" edge="1">
          <mxGeometry width="50" height="50" relative="1" as="geometry">
            <mxPoint x="691.8899999999999" y="461.0300000000002" as="sourcePoint" />
            <mxPoint x="590" y="260" as="targetPoint" />
            <Array as="points">
              <mxPoint x="740" y="461" />
              <mxPoint x="740" y="319" />
            </Array>
          </mxGeometry>
        </mxCell>
        <mxCell id="D7E68T9pFaGjz6Eeja75-57" value="" style="endArrow=none;html=1;rounded=0;entryX=0;entryY=0.111;entryDx=0;entryDy=0;entryPerimeter=0;fillColor=#dae8fc;strokeColor=#6c8ebf;" parent="WIyWlLk6GJQsqaUBKTNV-1" edge="1">
          <mxGeometry width="50" height="50" relative="1" as="geometry">
            <mxPoint x="780" y="-40" as="sourcePoint" />
            <mxPoint x="960" y="-89.9960000000001" as="targetPoint" />
            <Array as="points">
              <mxPoint x="780" y="-89.99000000000001" />
            </Array>
          </mxGeometry>
        </mxCell>
        <mxCell id="D7E68T9pFaGjz6Eeja75-58" value="" style="endArrow=none;html=1;rounded=0;exitX=1;exitY=0.5;exitDx=0;exitDy=0;entryX=-0.014;entryY=0.019;entryDx=0;entryDy=0;entryPerimeter=0;fillColor=#dae8fc;strokeColor=#6c8ebf;" parent="WIyWlLk6GJQsqaUBKTNV-1" source="D7E68T9pFaGjz6Eeja75-5" target="D7E68T9pFaGjz6Eeja75-26" edge="1">
          <mxGeometry width="50" height="50" relative="1" as="geometry">
            <mxPoint x="600" y="110" as="sourcePoint" />
            <mxPoint x="650" y="60" as="targetPoint" />
            <Array as="points">
              <mxPoint x="690" y="-87" />
              <mxPoint x="690" y="-153" />
            </Array>
          </mxGeometry>
        </mxCell>
        <mxCell id="D7E68T9pFaGjz6Eeja75-59" value="" style="endArrow=none;html=1;rounded=0;entryX=1;entryY=0.5;entryDx=0;entryDy=0;exitX=0.005;exitY=1.056;exitDx=0;exitDy=0;exitPerimeter=0;fillColor=#dae8fc;strokeColor=#6c8ebf;" parent="WIyWlLk6GJQsqaUBKTNV-1" source="D7E68T9pFaGjz6Eeja75-36" target="D7E68T9pFaGjz6Eeja75-1" edge="1">
          <mxGeometry width="50" height="50" relative="1" as="geometry">
            <mxPoint x="600" y="260" as="sourcePoint" />
            <mxPoint x="650" y="210" as="targetPoint" />
            <Array as="points">
              <mxPoint x="980" y="113" />
              <mxPoint x="980" y="43" />
            </Array>
          </mxGeometry>
        </mxCell>
        <mxCell id="D7E68T9pFaGjz6Eeja75-60" value="" style="endArrow=none;html=1;rounded=0;entryX=1;entryY=0.5;entryDx=0;entryDy=0;exitX=1.033;exitY=0.733;exitDx=0;exitDy=0;exitPerimeter=0;fillColor=#dae8fc;strokeColor=#6c8ebf;" parent="WIyWlLk6GJQsqaUBKTNV-1" source="D7E68T9pFaGjz6Eeja75-68" edge="1">
          <mxGeometry width="50" height="50" relative="1" as="geometry">
            <mxPoint x="980" y="150" as="sourcePoint" />
            <mxPoint x="870" y="150" as="targetPoint" />
            <Array as="points">
              <mxPoint x="950" y="250" />
              <mxPoint x="950" y="150" />
            </Array>
          </mxGeometry>
        </mxCell>
        <mxCell id="D7E68T9pFaGjz6Eeja75-61" value="1" style="text;html=1;align=center;verticalAlign=middle;resizable=0;points=[];autosize=1;" parent="WIyWlLk6GJQsqaUBKTNV-1" vertex="1">
          <mxGeometry x="555" y="-122" width="30" height="30" as="geometry" />
        </mxCell>
        <mxCell id="D7E68T9pFaGjz6Eeja75-62" value="*" style="text;html=1;align=center;verticalAlign=middle;resizable=0;points=[];autosize=1;" parent="WIyWlLk6GJQsqaUBKTNV-1" vertex="1">
          <mxGeometry x="935" y="-182" width="30" height="30" as="geometry" />
        </mxCell>
        <mxCell id="D7E68T9pFaGjz6Eeja75-63" value="1" style="text;html=1;align=center;verticalAlign=middle;resizable=0;points=[];autosize=1;" parent="WIyWlLk6GJQsqaUBKTNV-1" vertex="1">
          <mxGeometry x="755" y="-72" width="30" height="30" as="geometry" />
        </mxCell>
        <mxCell id="D7E68T9pFaGjz6Eeja75-64" value="*" style="text;html=1;align=center;verticalAlign=middle;resizable=0;points=[];autosize=1;" parent="WIyWlLk6GJQsqaUBKTNV-1" vertex="1">
          <mxGeometry x="930" y="-112" width="30" height="30" as="geometry" />
        </mxCell>
        <mxCell id="D7E68T9pFaGjz6Eeja75-65" value="1" style="text;html=1;align=center;verticalAlign=middle;resizable=0;points=[];autosize=1;" parent="WIyWlLk6GJQsqaUBKTNV-1" vertex="1">
          <mxGeometry x="865" y="18" width="30" height="30" as="geometry" />
        </mxCell>
        <mxCell id="D7E68T9pFaGjz6Eeja75-66" value="*" style="text;html=1;align=center;verticalAlign=middle;resizable=0;points=[];autosize=1;" parent="WIyWlLk6GJQsqaUBKTNV-1" vertex="1">
          <mxGeometry x="1035" y="88" width="30" height="30" as="geometry" />
        </mxCell>
        <mxCell id="D7E68T9pFaGjz6Eeja75-67" value="1" style="text;html=1;align=center;verticalAlign=middle;resizable=0;points=[];autosize=1;" parent="WIyWlLk6GJQsqaUBKTNV-1" vertex="1">
          <mxGeometry x="865" y="128" width="30" height="30" as="geometry" />
        </mxCell>
        <mxCell id="D7E68T9pFaGjz6Eeja75-68" value="*" style="text;html=1;align=center;verticalAlign=middle;resizable=0;points=[];autosize=1;" parent="WIyWlLk6GJQsqaUBKTNV-1" vertex="1">
          <mxGeometry x="1100" y="228" width="30" height="30" as="geometry" />
        </mxCell>
        <mxCell id="D7E68T9pFaGjz6Eeja75-69" value="1" style="text;html=1;align=center;verticalAlign=middle;resizable=0;points=[];autosize=1;" parent="WIyWlLk6GJQsqaUBKTNV-1" vertex="1">
          <mxGeometry x="775" y="168" width="30" height="30" as="geometry" />
        </mxCell>
        <mxCell id="D7E68T9pFaGjz6Eeja75-70" value="1" style="text;html=1;align=center;verticalAlign=middle;resizable=0;points=[];autosize=1;" parent="WIyWlLk6GJQsqaUBKTNV-1" vertex="1">
          <mxGeometry x="835" y="258" width="30" height="30" as="geometry" />
        </mxCell>
        <mxCell id="D7E68T9pFaGjz6Eeja75-71" value="1" style="text;html=1;align=center;verticalAlign=middle;resizable=0;points=[];autosize=1;" parent="WIyWlLk6GJQsqaUBKTNV-1" vertex="1">
          <mxGeometry x="715" y="178" width="30" height="30" as="geometry" />
        </mxCell>
        <mxCell id="D7E68T9pFaGjz6Eeja75-72" value="1" style="text;html=1;align=center;verticalAlign=middle;resizable=0;points=[];autosize=1;" parent="WIyWlLk6GJQsqaUBKTNV-1" vertex="1">
          <mxGeometry x="605" y="288" width="30" height="30" as="geometry" />
        </mxCell>
        <mxCell id="D7E68T9pFaGjz6Eeja75-73" value="*" style="text;html=1;align=center;verticalAlign=middle;resizable=0;points=[];autosize=1;" parent="WIyWlLk6GJQsqaUBKTNV-1" vertex="1">
          <mxGeometry x="765" y="288" width="30" height="30" as="geometry" />
        </mxCell>
        <mxCell id="D7E68T9pFaGjz6Eeja75-74" value="1" style="text;html=1;align=center;verticalAlign=middle;resizable=0;points=[];autosize=1;" parent="WIyWlLk6GJQsqaUBKTNV-1" vertex="1">
          <mxGeometry x="685" y="428" width="30" height="30" as="geometry" />
        </mxCell>
        <mxCell id="D7E68T9pFaGjz6Eeja75-75" value="*" style="text;html=1;align=center;verticalAlign=middle;resizable=0;points=[];autosize=1;" parent="WIyWlLk6GJQsqaUBKTNV-1" vertex="1">
          <mxGeometry x="390" y="420" width="30" height="30" as="geometry" />
        </mxCell>
        <mxCell id="D7E68T9pFaGjz6Eeja75-76" value="1" style="text;html=1;align=center;verticalAlign=middle;resizable=0;points=[];autosize=1;" parent="WIyWlLk6GJQsqaUBKTNV-1" vertex="1">
          <mxGeometry x="265" y="248" width="30" height="30" as="geometry" />
        </mxCell>
        <mxCell id="D7E68T9pFaGjz6Eeja75-77" value="1" style="text;html=1;align=center;verticalAlign=middle;resizable=0;points=[];autosize=1;" parent="WIyWlLk6GJQsqaUBKTNV-1" vertex="1">
          <mxGeometry x="265" y="178" width="30" height="30" as="geometry" />
        </mxCell>
        <mxCell id="D7E68T9pFaGjz6Eeja75-78" value="1" style="text;html=1;align=center;verticalAlign=middle;resizable=0;points=[];autosize=1;" parent="WIyWlLk6GJQsqaUBKTNV-1" vertex="1">
          <mxGeometry x="365" y="158" width="30" height="30" as="geometry" />
        </mxCell>
        <mxCell id="D7E68T9pFaGjz6Eeja75-79" value="1" style="text;html=1;align=center;verticalAlign=middle;resizable=0;points=[];autosize=1;" parent="WIyWlLk6GJQsqaUBKTNV-1" vertex="1">
          <mxGeometry x="365" y="98" width="30" height="30" as="geometry" />
        </mxCell>
        <mxCell id="D7E68T9pFaGjz6Eeja75-80" value="1" style="text;html=1;align=center;verticalAlign=middle;resizable=0;points=[];autosize=1;" parent="WIyWlLk6GJQsqaUBKTNV-1" vertex="1">
          <mxGeometry x="345" y="-82" width="30" height="30" as="geometry" />
        </mxCell>
        <mxCell id="D7E68T9pFaGjz6Eeja75-81" value="1" style="text;html=1;align=center;verticalAlign=middle;resizable=0;points=[];autosize=1;" parent="WIyWlLk6GJQsqaUBKTNV-1" vertex="1">
          <mxGeometry x="555" y="78" width="30" height="30" as="geometry" />
        </mxCell>
        <mxCell id="D7E68T9pFaGjz6Eeja75-82" value="1" style="text;html=1;align=center;verticalAlign=middle;resizable=0;points=[];autosize=1;" parent="WIyWlLk6GJQsqaUBKTNV-1" vertex="1">
          <mxGeometry x="655" y="-22" width="30" height="30" as="geometry" />
        </mxCell>
        <mxCell id="2Sax28Y8y1-245yYLD0v-0" value="sdsds" style="text;html=1;align=center;verticalAlign=middle;resizable=0;points=[];autosize=1;strokeColor=none;fillColor=none;" vertex="1" parent="WIyWlLk6GJQsqaUBKTNV-1">
          <mxGeometry x="-240" y="260" width="60" height="30" as="geometry" />
        </mxCell>
        <mxCell id="2Sax28Y8y1-245yYLD0v-1" value="dsdsd" style="text;html=1;align=center;verticalAlign=middle;resizable=0;points=[];autosize=1;strokeColor=none;fillColor=none;" vertex="1" parent="WIyWlLk6GJQsqaUBKTNV-1">
          <mxGeometry x="1440" y="198" width="60" height="30" as="geometry" />
        </mxCell>
        <mxCell id="2Sax28Y8y1-245yYLD0v-2" value="sdsfdsf" style="text;html=1;align=center;verticalAlign=middle;resizable=0;points=[];autosize=1;strokeColor=none;fillColor=none;" vertex="1" parent="WIyWlLk6GJQsqaUBKTNV-1">
          <mxGeometry x="610" y="608" width="60" height="30" as="geometry" />
        </mxCell>
        <mxCell id="2Sax28Y8y1-245yYLD0v-3" value="dfdsf" style="text;html=1;align=center;verticalAlign=middle;resizable=0;points=[];autosize=1;strokeColor=none;fillColor=none;" vertex="1" parent="WIyWlLk6GJQsqaUBKTNV-1">
          <mxGeometry x="685" y="-302" width="50" height="30" as="geometry" />
        </mxCell>
      </root>
    </mxGraphModel>
  </diagram>
</mxfile>
